<svg width="1209" height="119" viewBox="0 0 1209 119" fill="none" xmlns="http://www.w3.org/2000/svg">
<path d="M0 61.7273C0 50.697 2.4701 40.8864 7.4103 32.2955C12.3505 23.5985 19.2119 16.8636 27.9944 12.0909C36.8868 7.21212 46.9319 4.77272 58.1297 4.77272C71.8524 4.77272 83.5991 8.27272 93.3697 15.2727C103.14 22.2727 109.672 31.8182 112.966 43.9091H82.0073C79.7019 39.2424 76.4084 35.6894 72.1269 33.25C67.9552 30.8106 63.1796 29.5909 57.8003 29.5909C49.1275 29.5909 42.1015 32.5076 36.7221 38.3409C31.3428 44.1742 28.6531 51.9697 28.6531 61.7273C28.6531 71.4848 31.3428 79.2803 36.7221 85.1136C42.1015 90.947 49.1275 93.8636 57.8003 93.8636C63.1796 93.8636 67.9552 92.6439 72.1269 90.2045C76.4084 87.7651 79.7019 84.2121 82.0073 79.5455H112.966C109.672 91.6364 103.14 101.182 93.3697 108.182C83.5991 115.076 71.8524 118.523 58.1297 118.523C46.9319 118.523 36.8868 116.136 27.9944 111.364C19.2119 106.485 12.3505 99.75 7.4103 91.1591C2.4701 82.5682 0 72.7576 0 61.7273Z" fill="#7A37D5"/>
<path d="M172.037 119C163.035 119 154.911 117.144 147.666 113.432C140.53 109.72 134.876 104.417 130.704 97.5227C126.642 90.6288 124.611 82.5682 124.611 73.3409C124.611 64.2197 126.697 56.2121 130.869 49.3182C135.041 42.3182 140.749 36.9621 147.995 33.25C155.241 29.5379 163.364 27.6818 172.367 27.6818C181.369 27.6818 189.493 29.5379 196.738 33.25C203.984 36.9621 209.693 42.3182 213.864 49.3182C218.036 56.2121 220.122 64.2197 220.122 73.3409C220.122 82.4621 217.981 90.5227 213.7 97.5227C209.528 104.417 203.764 109.72 196.409 113.432C189.163 117.144 181.039 119 172.037 119ZM172.037 95.4545C177.417 95.4545 181.972 93.5454 185.705 89.7273C189.547 85.9091 191.469 80.447 191.469 73.3409C191.469 66.2348 189.602 60.7727 185.87 56.9545C182.247 53.1364 177.746 51.2273 172.367 51.2273C166.877 51.2273 162.322 53.1364 158.699 56.9545C155.076 60.6667 153.264 66.1288 153.264 73.3409C153.264 80.447 155.021 85.9091 158.534 89.7273C162.157 93.5454 166.658 95.4545 172.037 95.4545Z" fill="#7A37D5"/>
<path d="M291.05 28C301.808 28 310.371 31.3939 316.739 38.1818C323.216 44.8636 326.454 54.0909 326.454 65.8636V117.727H298.46V69.5227C298.46 63.5833 296.868 58.9697 293.684 55.6818C290.501 52.3939 286.219 50.75 280.84 50.75C275.461 50.75 271.179 52.3939 267.995 55.6818C264.812 58.9697 263.22 63.5833 263.22 69.5227V117.727H235.061V28.9545H263.22V40.7273C266.074 36.803 269.917 33.7273 274.747 31.5C279.577 29.1667 285.012 28 291.05 28Z" fill="#7A37D5"/>
<path d="M397.236 94.6591V117.727H382.909C372.699 117.727 364.74 115.341 359.031 110.568C353.323 105.689 350.468 97.7879 350.468 86.8636V51.5455H339.271V28.9545H350.468V7.31818H378.627V28.9545H397.071V51.5455H378.627V87.1818C378.627 89.8333 379.286 91.7424 380.604 92.9091C381.921 94.0758 384.117 94.6591 387.191 94.6591H397.236Z" fill="#7A37D5"/>
<path d="M407.322 73.1818C407.322 64.0606 409.078 56.053 412.591 49.1591C416.214 42.2651 421.099 36.9621 427.247 33.25C433.395 29.5379 440.256 27.6818 447.831 27.6818C454.309 27.6818 459.962 28.9545 464.793 31.5C469.733 34.0455 473.52 37.3864 476.155 41.5227V28.9545H504.314V117.727H476.155V105.159C473.411 109.295 469.568 112.636 464.628 115.182C459.798 117.727 454.144 119 447.667 119C440.202 119 433.395 117.144 427.247 113.432C421.099 109.614 416.214 104.258 412.591 97.3636C409.078 90.3636 407.322 82.303 407.322 73.1818ZM476.155 73.3409C476.155 66.553 474.179 61.197 470.227 57.2727C466.385 53.3485 461.664 51.3864 456.065 51.3864C450.466 51.3864 445.691 53.3485 441.739 57.2727C437.896 61.0909 435.975 66.3939 435.975 73.1818C435.975 79.9697 437.896 85.3788 441.739 89.4091C445.691 93.3333 450.466 95.2955 456.065 95.2955C461.664 95.2955 466.385 93.3333 470.227 89.4091C474.179 85.4848 476.155 80.1288 476.155 73.3409Z" fill="#7A37D5"/>
<path d="M519.087 73.3409C519.087 64.1136 521.009 56.053 524.851 49.1591C528.803 42.2651 534.237 36.9621 541.154 33.25C548.18 29.5379 556.194 27.6818 565.196 27.6818C576.723 27.6818 586.329 30.5985 594.014 36.4318C601.808 42.2651 606.913 50.4848 609.328 61.0909H579.358C576.833 54.303 571.947 50.9091 564.702 50.9091C559.542 50.9091 555.425 52.8712 552.351 56.7955C549.277 60.6136 547.74 66.1288 547.74 73.3409C547.74 80.553 549.277 86.1212 552.351 90.0454C555.425 93.8636 559.542 95.7727 564.702 95.7727C571.947 95.7727 576.833 92.3788 579.358 85.5909H609.328C606.913 95.9848 601.808 104.152 594.014 110.091C586.219 116.03 576.613 119 565.196 119C556.194 119 548.18 117.144 541.154 113.432C534.237 109.72 528.803 104.417 524.851 97.5227C521.009 90.6288 519.087 82.5682 519.087 73.3409Z" fill="#7A37D5"/>
<path d="M675.604 94.6591V117.727H661.278C651.068 117.727 643.109 115.341 637.4 110.568C631.691 105.689 628.837 97.7879 628.837 86.8636V51.5455H617.639V28.9545H628.837V7.31818H656.996V28.9545H675.439V51.5455H656.996V87.1818C656.996 89.8333 657.655 91.7424 658.972 92.9091C660.289 94.0758 662.485 94.6591 665.559 94.6591H675.604Z" fill="#7A37D5"/>
<path d="M754.345 96.7273H791.232V117.727H726.186V6.04545H754.345V96.7273Z" fill="#7A37D5"/>
<path d="M891.281 71.9091C891.281 74.4545 891.116 77.1061 890.787 79.8636H827.058C827.498 85.3788 829.309 89.6212 832.493 92.5909C835.786 95.4545 839.793 96.8864 844.514 96.8864C851.54 96.8864 856.425 94.0227 859.17 88.2954H889.14C887.603 94.1288 884.804 99.3788 880.742 104.045C876.79 108.712 871.795 112.371 865.757 115.023C859.719 117.674 852.967 119 845.502 119C836.5 119 828.486 117.144 821.46 113.432C814.434 109.72 808.944 104.417 804.992 97.5227C801.04 90.6288 799.064 82.5682 799.064 73.3409C799.064 64.1136 800.985 56.053 804.828 49.1591C808.78 42.2651 814.269 36.9621 821.295 33.25C828.321 29.5379 836.39 27.6818 845.502 27.6818C854.394 27.6818 862.298 29.4848 869.215 33.0909C876.131 36.697 881.51 41.8409 885.353 48.5227C889.305 55.2045 891.281 63 891.281 71.9091ZM862.463 64.75C862.463 60.0833 860.816 56.3712 857.523 53.6136C854.23 50.8561 850.113 49.4773 845.173 49.4773C840.452 49.4773 836.445 50.803 833.151 53.4545C829.968 56.1061 827.992 59.8712 827.223 64.75H862.463Z" fill="#7A37D5"/>
<path d="M900.537 73.1818C900.537 64.0606 902.294 56.053 905.807 49.1591C909.43 42.2651 914.315 36.9621 920.463 33.25C926.611 29.5379 933.472 27.6818 941.047 27.6818C947.524 27.6818 953.178 28.9545 958.008 31.5C962.949 34.0455 966.736 37.3864 969.371 41.5227V28.9545H997.53V117.727H969.371V105.159C966.626 109.295 962.784 112.636 957.844 115.182C953.013 117.727 947.36 119 940.882 119C933.417 119 926.611 117.144 920.463 113.432C914.315 109.614 909.43 104.258 905.807 97.3636C902.294 90.3636 900.537 82.303 900.537 73.1818ZM969.371 73.3409C969.371 66.553 967.395 61.197 963.443 57.2727C959.6 53.3485 954.88 51.3864 949.281 51.3864C943.682 51.3864 938.906 53.3485 934.954 57.2727C931.112 61.0909 929.191 66.3939 929.191 73.1818C929.191 79.9697 931.112 85.3788 934.954 89.4091C938.906 93.3333 943.682 95.2955 949.281 95.2955C954.88 95.2955 959.6 93.3333 963.443 89.4091C967.395 85.4848 969.371 80.1288 969.371 73.3409Z" fill="#7A37D5"/>
<path d="M1012.3 73.3409C1012.3 64.1136 1014.22 56.053 1018.07 49.1591C1022.02 42.2651 1027.45 36.9621 1034.37 33.25C1041.4 29.5379 1049.41 27.6818 1058.41 27.6818C1069.94 27.6818 1079.54 30.5985 1087.23 36.4318C1095.02 42.2651 1100.13 50.4848 1102.54 61.0909H1072.57C1070.05 54.303 1065.16 50.9091 1057.92 50.9091C1052.76 50.9091 1048.64 52.8712 1045.57 56.7955C1042.49 60.6136 1040.96 66.1288 1040.96 73.3409C1040.96 80.553 1042.49 86.1212 1045.57 90.0454C1048.64 93.8636 1052.76 95.7727 1057.92 95.7727C1065.16 95.7727 1070.05 92.3788 1072.57 85.5909H1102.54C1100.13 95.9848 1095.02 104.152 1087.23 110.091C1079.43 116.03 1069.83 119 1058.41 119C1049.41 119 1041.4 117.144 1034.37 113.432C1027.45 109.72 1022.02 104.417 1018.07 97.5227C1014.22 90.6288 1012.3 82.5682 1012.3 73.3409Z" fill="#7A37D5"/>
<path d="M1174.09 28C1184.63 28 1193.08 31.3939 1199.45 38.1818C1205.82 44.8636 1209 54.0909 1209 65.8636V117.727H1181.01V69.5227C1181.01 63.5833 1179.41 58.9697 1176.23 55.6818C1173.05 52.3939 1168.76 50.75 1163.39 50.75C1158.01 50.75 1153.72 52.3939 1150.54 55.6818C1147.36 58.9697 1145.77 63.5833 1145.77 69.5227V117.727H1117.61V0H1145.77V40.8864C1148.62 36.9621 1152.52 33.8333 1157.46 31.5C1162.4 29.1667 1167.94 28 1174.09 28Z" fill="#7A37D5"/>
</svg>
