<svg width="692" height="893" viewBox="0 0 692 893" fill="none" xmlns="http://www.w3.org/2000/svg">
<ellipse cx="474" cy="93" rx="39" ry="40" fill="#3987F4"/>
<path d="M400 893C438.346 893 476.316 884.904 511.744 869.174C547.171 853.445 579.361 830.389 606.475 801.324C633.59 772.26 655.098 737.755 669.773 699.78C684.447 661.805 692 621.104 692 580C692 538.896 684.447 498.195 669.773 460.22C655.098 422.245 633.59 387.74 606.475 358.676C579.36 329.611 547.171 306.555 511.743 290.826C476.316 275.096 438.346 267 400 267L400 472.235C413.202 472.235 426.275 475.023 438.473 480.438C450.67 485.854 461.753 493.792 471.089 503.799C480.424 513.806 487.829 525.686 492.882 538.76C497.934 551.835 500.535 565.848 500.535 580C500.535 594.152 497.934 608.165 492.882 621.24C487.83 634.314 480.424 646.194 471.089 656.201C461.753 666.208 450.67 674.146 438.473 679.562C426.276 684.977 413.202 687.765 400 687.765V893Z" fill="#7AEED6"/>
<path d="M292 267C253.654 267 215.684 275.096 180.256 290.826C144.829 306.555 112.639 329.611 85.5248 358.676C58.4101 387.74 36.9016 422.245 22.2272 460.22C7.5528 498.195 0 538.896 0 580C0 621.104 7.5528 661.805 22.2272 699.78C36.9016 737.755 58.4102 772.26 85.5249 801.324C112.64 830.389 144.829 853.445 180.257 869.174C215.684 884.904 253.654 893 292 893L292 687.765C278.798 687.765 265.725 684.977 253.527 679.562C241.33 674.146 230.247 666.208 220.911 656.201C211.576 646.194 204.171 634.314 199.118 621.24C194.066 608.165 191.465 594.152 191.465 580C191.465 565.848 194.066 551.835 199.118 538.76C204.17 525.686 211.576 513.806 220.911 503.799C230.247 493.792 241.33 485.854 253.527 480.438C265.724 475.023 278.798 472.235 292 472.235L292 267Z" fill="#7AEED6"/>
<path d="M220 133.5C220 168.906 233.38 202.863 257.197 227.899C281.015 252.935 313.317 267 347 267C380.682 267 412.985 252.935 436.803 227.899C460.62 202.863 474 168.906 474 133.5L347 133.5L220 133.5Z" fill="#FFC5C9"/>
</svg>
