<svg width="208" height="174" viewBox="0 0 208 174" fill="none" xmlns="http://www.w3.org/2000/svg">
<rect width="208" height="174" fill="#7A37D5"/>
<path d="M54.434 31.774V58H48.314V46.912H37.658V58H31.538V31.774H37.658V42.736H48.314V31.774H54.434ZM66.9159 39.046C68.3319 39.046 69.6219 39.268 70.7859 39.712C71.9499 40.156 72.9459 40.792 73.7739 41.62C74.6139 42.448 75.2619 43.456 75.7179 44.644C76.1859 45.82 76.4199 47.146 76.4199 48.622C76.4199 50.11 76.1859 51.454 75.7179 52.654C75.2619 53.842 74.6139 54.856 73.7739 55.696C72.9459 56.524 71.9499 57.166 70.7859 57.622C69.6219 58.066 68.3319 58.288 66.9159 58.288C65.4879 58.288 64.1859 58.066 63.0099 57.622C61.8459 57.166 60.8379 56.524 59.9859 55.696C59.1459 54.856 58.4919 53.842 58.0239 52.654C57.5679 51.454 57.3399 50.11 57.3399 48.622C57.3399 47.146 57.5679 45.82 58.0239 44.644C58.4919 43.456 59.1459 42.448 59.9859 41.62C60.8379 40.792 61.8459 40.156 63.0099 39.712C64.1859 39.268 65.4879 39.046 66.9159 39.046ZM66.9159 54.148C68.1999 54.148 69.1419 53.698 69.7419 52.798C70.3539 51.886 70.6599 50.506 70.6599 48.658C70.6599 46.81 70.3539 45.436 69.7419 44.536C69.1419 43.636 68.1999 43.186 66.9159 43.186C65.5959 43.186 64.6299 43.636 64.0179 44.536C63.4059 45.436 63.0999 46.81 63.0999 48.658C63.0999 50.506 63.4059 51.886 64.0179 52.798C64.6299 53.698 65.5959 54.148 66.9159 54.148ZM106.346 39.334L100.55 58H96.0143C95.7743 58 95.5703 57.928 95.4023 57.784C95.2343 57.64 95.1023 57.4 95.0063 57.064L92.3423 47.758C92.2103 47.338 92.0903 46.924 91.9823 46.516C91.8863 46.108 91.7963 45.694 91.7123 45.274C91.6283 45.694 91.5323 46.114 91.4243 46.534C91.3283 46.954 91.2143 47.374 91.0823 47.794L88.3823 57.064C88.2023 57.688 87.8063 58 87.1943 58H82.8743L77.0783 39.334H81.5423C81.9383 39.334 82.2683 39.43 82.5323 39.622C82.8083 39.802 82.9943 40.03 83.0903 40.306L84.9623 48.676C85.1183 49.312 85.2563 49.93 85.3763 50.53C85.4963 51.118 85.6043 51.712 85.7003 52.312C85.8563 51.712 86.0183 51.118 86.1863 50.53C86.3663 49.93 86.5583 49.312 86.7623 48.676L89.1023 40.288C89.1983 40.012 89.3783 39.784 89.6423 39.604C89.9063 39.412 90.2183 39.316 90.5783 39.316H93.0623C93.4583 39.316 93.7883 39.412 94.0523 39.604C94.3283 39.784 94.5143 40.012 94.6103 40.288L96.8423 48.676C97.0223 49.312 97.1963 49.93 97.3643 50.53C97.5443 51.13 97.7063 51.736 97.8503 52.348C97.9463 51.748 98.0603 51.148 98.1923 50.548C98.3243 49.948 98.4743 49.324 98.6423 48.676L100.622 40.306C100.718 40.03 100.898 39.802 101.162 39.622C101.426 39.43 101.738 39.334 102.098 39.334H106.346ZM87.6502 101H81.5302V74.774H87.6502V101ZM98.2477 101.288C97.3597 101.288 96.5737 101.162 95.8897 100.91C95.2177 100.646 94.6477 100.28 94.1797 99.812C93.7237 99.332 93.3757 98.756 93.1357 98.084C92.8957 97.412 92.7757 96.662 92.7757 95.834V86.186H91.1917C90.9037 86.186 90.6577 86.096 90.4537 85.916C90.2497 85.724 90.1477 85.448 90.1477 85.088V82.91L93.1177 82.334L94.2157 77.78C94.3597 77.204 94.7677 76.916 95.4397 76.916H98.3557V82.37H102.982V86.186H98.3557V95.456C98.3557 95.888 98.4577 96.248 98.6617 96.536C98.8777 96.812 99.1837 96.95 99.5797 96.95C99.7837 96.95 99.9517 96.932 100.084 96.896C100.228 96.848 100.348 96.8 100.444 96.752C100.552 96.692 100.648 96.644 100.732 96.608C100.828 96.56 100.936 96.536 101.056 96.536C101.224 96.536 101.356 96.578 101.452 96.662C101.56 96.734 101.668 96.854 101.776 97.022L103.468 99.668C102.748 100.208 101.938 100.616 101.038 100.892C100.138 101.156 99.2077 101.288 98.2477 101.288ZM108.928 117.774L100.828 144H95.3202L90.3882 127.746C90.2922 127.494 90.2022 127.218 90.1182 126.918C90.0342 126.606 89.9502 126.282 89.8662 125.946C89.7822 126.282 89.6982 126.606 89.6142 126.918C89.5302 127.218 89.4402 127.494 89.3442 127.746L84.3402 144H78.8322L70.7322 117.774H75.8442C76.3722 117.774 76.8102 117.894 77.1582 118.134C77.5182 118.374 77.7522 118.692 77.8602 119.088L81.4602 132.768C81.5682 133.2 81.6762 133.674 81.7842 134.19C81.8922 134.694 82.0002 135.222 82.1082 135.774C82.3242 134.646 82.5882 133.644 82.9002 132.768L87.1482 119.088C87.2562 118.752 87.4842 118.452 87.8322 118.188C88.1922 117.912 88.6242 117.774 89.1282 117.774H90.9282C91.4562 117.774 91.8822 117.9 92.2062 118.152C92.5302 118.392 92.7762 118.704 92.9442 119.088L97.1562 132.768C97.4682 133.608 97.7322 134.562 97.9482 135.63C98.0442 135.09 98.1402 134.586 98.2362 134.118C98.3442 133.638 98.4522 133.188 98.5602 132.768L102.16 119.088C102.256 118.74 102.484 118.434 102.844 118.17C103.204 117.906 103.636 117.774 104.14 117.774H108.928ZM117.154 125.046C118.57 125.046 119.86 125.268 121.024 125.712C122.188 126.156 123.184 126.792 124.012 127.62C124.852 128.448 125.5 129.456 125.956 130.644C126.424 131.82 126.658 133.146 126.658 134.622C126.658 136.11 126.424 137.454 125.956 138.654C125.5 139.842 124.852 140.856 124.012 141.696C123.184 142.524 122.188 143.166 121.024 143.622C119.86 144.066 118.57 144.288 117.154 144.288C115.726 144.288 114.424 144.066 113.248 143.622C112.084 143.166 111.076 142.524 110.224 141.696C109.384 140.856 108.73 139.842 108.262 138.654C107.806 137.454 107.578 136.11 107.578 134.622C107.578 133.146 107.806 131.82 108.262 130.644C108.73 129.456 109.384 128.448 110.224 127.62C111.076 126.792 112.084 126.156 113.248 125.712C114.424 125.268 115.726 125.046 117.154 125.046ZM117.154 140.148C118.438 140.148 119.38 139.698 119.98 138.798C120.592 137.886 120.898 136.506 120.898 134.658C120.898 132.81 120.592 131.436 119.98 130.536C119.38 129.636 118.438 129.186 117.154 129.186C115.834 129.186 114.868 129.636 114.256 130.536C113.644 131.436 113.338 132.81 113.338 134.658C113.338 136.506 113.644 137.886 114.256 138.798C114.868 139.698 115.834 140.148 117.154 140.148ZM134.688 128.214C135.264 127.206 135.924 126.414 136.668 125.838C137.424 125.262 138.288 124.974 139.26 124.974C140.1 124.974 140.784 125.172 141.312 125.568L140.952 129.672C140.892 129.936 140.79 130.116 140.646 130.212C140.514 130.308 140.328 130.356 140.088 130.356C139.992 130.356 139.866 130.35 139.71 130.338C139.554 130.326 139.392 130.314 139.224 130.302C139.056 130.278 138.882 130.26 138.702 130.248C138.534 130.224 138.378 130.212 138.234 130.212C137.418 130.212 136.764 130.428 136.272 130.86C135.792 131.292 135.384 131.892 135.048 132.66V144H129.468V125.334H132.78C133.056 125.334 133.284 125.358 133.464 125.406C133.656 125.454 133.812 125.532 133.932 125.64C134.064 125.736 134.16 125.868 134.22 126.036C134.292 126.204 134.352 126.408 134.4 126.648L134.688 128.214ZM148.794 117.054V132.156H149.622C149.97 132.156 150.234 132.108 150.414 132.012C150.594 131.904 150.774 131.73 150.954 131.49L154.482 126.234C154.698 125.934 154.944 125.712 155.22 125.568C155.496 125.412 155.85 125.334 156.282 125.334H161.394L156.57 131.976C156.114 132.576 155.574 133.068 154.95 133.452C155.226 133.656 155.478 133.896 155.706 134.172C155.934 134.436 156.15 134.736 156.354 135.072L161.61 144H156.57C156.15 144 155.79 143.934 155.49 143.802C155.19 143.658 154.938 143.412 154.734 143.064L151.206 136.458C151.038 136.158 150.864 135.966 150.684 135.882C150.504 135.786 150.234 135.738 149.874 135.738H148.794V144H143.214V117.054H148.794ZM175.186 129.42C175.042 129.648 174.886 129.81 174.718 129.906C174.562 130.002 174.358 130.05 174.106 130.05C173.842 130.05 173.578 129.996 173.314 129.888C173.05 129.768 172.762 129.642 172.45 129.51C172.15 129.378 171.808 129.258 171.424 129.15C171.04 129.03 170.602 128.97 170.11 128.97C169.402 128.97 168.856 129.108 168.472 129.384C168.1 129.648 167.914 130.02 167.914 130.5C167.914 130.848 168.034 131.136 168.274 131.364C168.526 131.592 168.856 131.796 169.264 131.976C169.672 132.144 170.134 132.306 170.65 132.462C171.166 132.618 171.694 132.792 172.234 132.984C172.774 133.176 173.302 133.404 173.818 133.668C174.334 133.92 174.796 134.238 175.204 134.622C175.612 134.994 175.936 135.45 176.176 135.99C176.428 136.53 176.554 137.178 176.554 137.934C176.554 138.858 176.386 139.71 176.05 140.49C175.714 141.27 175.21 141.942 174.538 142.506C173.878 143.07 173.056 143.508 172.072 143.82C171.1 144.132 169.978 144.288 168.706 144.288C168.07 144.288 167.434 144.228 166.798 144.108C166.162 143.988 165.544 143.826 164.944 143.622C164.356 143.418 163.81 143.178 163.306 142.902C162.802 142.614 162.37 142.308 162.01 141.984L163.306 139.932C163.45 139.692 163.63 139.506 163.846 139.374C164.074 139.23 164.362 139.158 164.71 139.158C165.034 139.158 165.322 139.23 165.574 139.374C165.838 139.518 166.12 139.674 166.42 139.842C166.72 140.01 167.068 140.166 167.464 140.31C167.872 140.454 168.382 140.526 168.994 140.526C169.426 140.526 169.792 140.484 170.092 140.4C170.392 140.304 170.632 140.178 170.812 140.022C170.992 139.866 171.124 139.692 171.208 139.5C171.292 139.308 171.334 139.11 171.334 138.906C171.334 138.534 171.208 138.228 170.956 137.988C170.704 137.748 170.374 137.544 169.966 137.376C169.558 137.196 169.09 137.034 168.562 136.89C168.046 136.734 167.518 136.56 166.978 136.368C166.438 136.176 165.904 135.948 165.376 135.684C164.86 135.408 164.398 135.066 163.99 134.658C163.582 134.238 163.252 133.728 163 133.128C162.748 132.528 162.622 131.802 162.622 130.95C162.622 130.158 162.772 129.408 163.072 128.7C163.384 127.98 163.846 127.35 164.458 126.81C165.07 126.27 165.838 125.844 166.762 125.532C167.686 125.208 168.766 125.046 170.002 125.046C170.674 125.046 171.322 125.106 171.946 125.226C172.582 125.346 173.176 125.514 173.728 125.73C174.28 125.946 174.784 126.204 175.24 126.504C175.696 126.792 176.098 127.11 176.446 127.458L175.186 129.42Z" fill="white"/>
</svg>
