<svg width="584" height="722" viewBox="0 0 584 722" fill="none" xmlns="http://www.w3.org/2000/svg">
<path d="M550 250C550 217.17 543.249 184.661 530.133 154.329C517.016 123.998 497.791 96.4379 473.555 73.2233C449.319 50.0087 420.546 31.5938 388.88 19.0301C357.214 6.46644 323.275 -1.43507e-06 289 0L289 250H550Z" fill="#7A37D5" fill-opacity="0.5"/>
<rect x="292" y="251" width="258" height="196" fill="#F4E1A6"/>
<ellipse cx="419" cy="517" rx="74" ry="70" fill="#FEEEE6"/>
<path d="M292 96C214.557 96 140.285 128.977 85.5248 187.676C30.7642 246.374 6.7703e-06 325.987 0 409C-6.7703e-06 492.013 30.7642 571.626 85.5248 630.324C140.285 689.023 214.557 722 292 722L292 409V96Z" fill="#FFC5C9"/>
<path d="M292 588.5C292 623.906 305.38 657.863 329.197 682.899C353.015 707.935 385.317 722 419 722C452.682 722 484.985 707.935 508.803 682.899C532.62 657.863 546 623.906 546 588.5L419 588.5H292Z" fill="#79E2DD"/>
</svg>
