<svg width="1094" height="120" viewBox="0 0 1094 120" fill="none" xmlns="http://www.w3.org/2000/svg">
<rect width="1094" height="120" fill="#7A37D5"/>
<path d="M261.784 50.344L256.66 70H250.864L247.728 57.064L244.48 70H238.684L233.7 50.344H238.824L241.652 64.652L245.152 50.344H250.416L253.776 64.652L256.632 50.344H261.784ZM274.573 54.18V58.156H280.985V61.852H274.573V66.164H281.825V70H269.785V50.344H281.825V54.18H274.573ZM319.091 50.344V70H314.303V61.908H306.855V70H302.067V50.344H306.855V58.044H314.303V50.344H319.091ZM332.936 54.18V58.156H339.348V61.852H332.936V66.164H340.188V70H328.148V50.344H340.188V54.18H332.936ZM353.684 66.304H359.956V70H348.896V50.344H353.684V66.304ZM382.82 56.672C382.82 57.8107 382.559 58.856 382.036 59.808C381.513 60.7413 380.711 61.4973 379.628 62.076C378.545 62.6547 377.201 62.944 375.596 62.944H372.628V70H367.84V50.344H375.596C377.164 50.344 378.489 50.6147 379.572 51.156C380.655 51.6973 381.467 52.444 382.008 53.396C382.549 54.348 382.82 55.44 382.82 56.672ZM375.232 59.136C376.147 59.136 376.828 58.9213 377.276 58.492C377.724 58.0627 377.948 57.456 377.948 56.672C377.948 55.888 377.724 55.2813 377.276 54.852C376.828 54.4227 376.147 54.208 375.232 54.208H372.628V59.136H375.232ZM416.586 50.344V54.18H411.378V70H406.59V54.18H401.382V50.344H416.586ZM441.613 50.344V70H436.825V61.908H429.377V70H424.589V50.344H429.377V58.044H436.825V50.344H441.613ZM455.458 54.18V58.156H461.87V61.852H455.458V66.164H462.71V70H450.67V50.344H462.71V54.18H455.458ZM494.852 59.92C495.99 60.1627 496.905 60.732 497.596 61.628C498.286 62.5053 498.632 63.5133 498.632 64.652C498.632 66.2947 498.053 67.6013 496.896 68.572C495.757 69.524 494.161 70 492.108 70H482.952V50.344H491.8C493.797 50.344 495.356 50.8013 496.476 51.716C497.614 52.6307 498.184 53.872 498.184 55.44C498.184 56.5973 497.876 57.5587 497.26 58.324C496.662 59.0893 495.86 59.6213 494.852 59.92ZM487.74 58.296H490.876C491.66 58.296 492.257 58.128 492.668 57.792C493.097 57.4373 493.312 56.924 493.312 56.252C493.312 55.58 493.097 55.0667 492.668 54.712C492.257 54.3573 491.66 54.18 490.876 54.18H487.74V58.296ZM491.268 66.136C492.07 66.136 492.686 65.9587 493.116 65.604C493.564 65.2307 493.788 64.6987 493.788 64.008C493.788 63.3173 493.554 62.776 493.088 62.384C492.64 61.992 492.014 61.796 491.212 61.796H487.74V66.136H491.268ZM511.797 50.344V70H507.009V50.344H511.797ZM533.914 56.56C533.56 55.9067 533.046 55.412 532.374 55.076C531.721 54.7213 530.946 54.544 530.05 54.544C528.501 54.544 527.26 55.0573 526.326 56.084C525.393 57.092 524.926 58.4453 524.926 60.144C524.926 61.9547 525.412 63.3733 526.382 64.4C527.372 65.408 528.725 65.912 530.442 65.912C531.618 65.912 532.608 65.6133 533.41 65.016C534.232 64.4187 534.829 63.56 535.202 62.44H529.126V58.912H539.542V63.364C539.188 64.5587 538.581 65.6693 537.722 66.696C536.882 67.7227 535.809 68.5533 534.502 69.188C533.196 69.8227 531.721 70.14 530.078 70.14C528.137 70.14 526.401 69.72 524.87 68.88C523.358 68.0213 522.173 66.836 521.314 65.324C520.474 63.812 520.054 62.0853 520.054 60.144C520.054 58.2027 520.474 56.476 521.314 54.964C522.173 53.4333 523.358 52.248 524.87 51.408C526.382 50.5493 528.109 50.12 530.05 50.12C532.402 50.12 534.381 50.6893 535.986 51.828C537.61 52.9667 538.684 54.544 539.206 56.56H533.914ZM560.843 56.56C560.488 55.9067 559.975 55.412 559.303 55.076C558.649 54.7213 557.875 54.544 556.979 54.544C555.429 54.544 554.188 55.0573 553.255 56.084C552.321 57.092 551.855 58.4453 551.855 60.144C551.855 61.9547 552.34 63.3733 553.311 64.4C554.3 65.408 555.653 65.912 557.371 65.912C558.547 65.912 559.536 65.6133 560.339 65.016C561.16 64.4187 561.757 63.56 562.131 62.44H556.055V58.912H566.471V63.364C566.116 64.5587 565.509 65.6693 564.651 66.696C563.811 67.7227 562.737 68.5533 561.431 69.188C560.124 69.8227 558.649 70.14 557.007 70.14C555.065 70.14 553.329 69.72 551.799 68.88C550.287 68.0213 549.101 66.836 548.243 65.324C547.403 63.812 546.983 62.0853 546.983 60.144C546.983 58.2027 547.403 56.476 548.243 54.964C549.101 53.4333 550.287 52.248 551.799 51.408C553.311 50.5493 555.037 50.12 556.979 50.12C559.331 50.12 561.309 50.6893 562.915 51.828C564.539 52.9667 565.612 54.544 566.135 56.56H560.843ZM579.511 54.18V58.156H585.923V61.852H579.511V66.164H586.763V70H574.723V50.344H586.763V54.18H579.511ZM602.583 70.196C601.146 70.196 599.858 69.9627 598.719 69.496C597.581 69.0293 596.666 68.3387 595.975 67.424C595.303 66.5093 594.949 65.408 594.911 64.12H600.007C600.082 64.848 600.334 65.408 600.763 65.8C601.193 66.1733 601.753 66.36 602.443 66.36C603.153 66.36 603.713 66.2013 604.123 65.884C604.534 65.548 604.739 65.0907 604.739 64.512C604.739 64.0267 604.571 63.6253 604.235 63.308C603.918 62.9907 603.517 62.7293 603.031 62.524C602.565 62.3187 601.893 62.0853 601.015 61.824C599.746 61.432 598.71 61.04 597.907 60.648C597.105 60.256 596.414 59.6773 595.835 58.912C595.257 58.1467 594.967 57.148 594.967 55.916C594.967 54.0867 595.63 52.6587 596.955 51.632C598.281 50.5867 600.007 50.064 602.135 50.064C604.301 50.064 606.046 50.5867 607.371 51.632C608.697 52.6587 609.406 54.096 609.499 55.944H604.319C604.282 55.3093 604.049 54.8147 603.619 54.46C603.19 54.0867 602.639 53.9 601.967 53.9C601.389 53.9 600.922 54.0587 600.567 54.376C600.213 54.6747 600.035 55.1133 600.035 55.692C600.035 56.3267 600.334 56.8213 600.931 57.176C601.529 57.5307 602.462 57.9133 603.731 58.324C605.001 58.7533 606.027 59.164 606.811 59.556C607.614 59.948 608.305 60.5173 608.883 61.264C609.462 62.0107 609.751 62.972 609.751 64.148C609.751 65.268 609.462 66.2853 608.883 67.2C608.323 68.1147 607.502 68.8427 606.419 69.384C605.337 69.9253 604.058 70.196 602.583 70.196ZM632.438 50.344V54.18H627.23V70H622.442V54.18H617.234V50.344H632.438ZM663.874 59.92C665.013 60.1627 665.928 60.732 666.618 61.628C667.309 62.5053 667.654 63.5133 667.654 64.652C667.654 66.2947 667.076 67.6013 665.918 68.572C664.78 69.524 663.184 70 661.13 70H651.974V50.344H660.822C662.82 50.344 664.378 50.8013 665.498 51.716C666.637 52.6307 667.206 53.872 667.206 55.44C667.206 56.5973 666.898 57.5587 666.282 58.324C665.685 59.0893 664.882 59.6213 663.874 59.92ZM656.762 58.296H659.898C660.682 58.296 661.28 58.128 661.69 57.792C662.12 57.4373 662.334 56.924 662.334 56.252C662.334 55.58 662.12 55.0667 661.69 54.712C661.28 54.3573 660.682 54.18 659.898 54.18H656.762V58.296ZM660.29 66.136C661.093 66.136 661.709 65.9587 662.138 65.604C662.586 65.2307 662.81 64.6987 662.81 64.008C662.81 63.3173 662.577 62.776 662.11 62.384C661.662 61.992 661.037 61.796 660.234 61.796H656.762V66.136H660.29ZM686.055 70L681.967 62.58H680.819V70H676.031V50.344H684.067C685.617 50.344 686.933 50.6147 688.015 51.156C689.117 51.6973 689.938 52.444 690.479 53.396C691.021 54.3293 691.291 55.3747 691.291 56.532C691.291 57.8387 690.918 59.0053 690.171 60.032C689.443 61.0587 688.361 61.7867 686.923 62.216L691.459 70H686.055ZM680.819 59.192H683.787C684.665 59.192 685.318 58.9773 685.747 58.548C686.195 58.1187 686.419 57.512 686.419 56.728C686.419 55.9813 686.195 55.3933 685.747 54.964C685.318 54.5347 684.665 54.32 683.787 54.32H680.819V59.192ZM712.133 66.528H704.797L703.621 70H698.609L705.721 50.344H711.265L718.377 70H713.309L712.133 66.528ZM710.901 62.832L708.465 55.636L706.057 62.832H710.901ZM743.725 70H738.937L730.929 57.876V70H726.141V50.344H730.929L738.937 62.524V50.344H743.725V70ZM760.16 50.344C762.232 50.344 764.043 50.7547 765.592 51.576C767.142 52.3973 768.336 53.5547 769.176 55.048C770.035 56.5227 770.464 58.2307 770.464 60.172C770.464 62.0947 770.035 63.8027 769.176 65.296C768.336 66.7893 767.132 67.9467 765.564 68.768C764.015 69.5893 762.214 70 760.16 70H752.796V50.344H760.16ZM759.852 65.856C761.663 65.856 763.072 65.3613 764.08 64.372C765.088 63.3827 765.592 61.9827 765.592 60.172C765.592 58.3613 765.088 56.952 764.08 55.944C763.072 54.936 761.663 54.432 759.852 54.432H757.584V65.856H759.852ZM785.852 70.196C784.415 70.196 783.127 69.9627 781.988 69.496C780.849 69.0293 779.935 68.3387 779.244 67.424C778.572 66.5093 778.217 65.408 778.18 64.12H783.276C783.351 64.848 783.603 65.408 784.032 65.8C784.461 66.1733 785.021 66.36 785.712 66.36C786.421 66.36 786.981 66.2013 787.392 65.884C787.803 65.548 788.008 65.0907 788.008 64.512C788.008 64.0267 787.84 63.6253 787.504 63.308C787.187 62.9907 786.785 62.7293 786.3 62.524C785.833 62.3187 785.161 62.0853 784.284 61.824C783.015 61.432 781.979 61.04 781.176 60.648C780.373 60.256 779.683 59.6773 779.104 58.912C778.525 58.1467 778.236 57.148 778.236 55.916C778.236 54.0867 778.899 52.6587 780.224 51.632C781.549 50.5867 783.276 50.064 785.404 50.064C787.569 50.064 789.315 50.5867 790.64 51.632C791.965 52.6587 792.675 54.096 792.768 55.944H787.588C787.551 55.3093 787.317 54.8147 786.888 54.46C786.459 54.0867 785.908 53.9 785.236 53.9C784.657 53.9 784.191 54.0587 783.836 54.376C783.481 54.6747 783.304 55.1133 783.304 55.692C783.304 56.3267 783.603 56.8213 784.2 57.176C784.797 57.5307 785.731 57.9133 787 58.324C788.269 58.7533 789.296 59.164 790.08 59.556C790.883 59.948 791.573 60.5173 792.152 61.264C792.731 62.0107 793.02 62.972 793.02 64.148C793.02 65.268 792.731 66.2853 792.152 67.2C791.592 68.1147 790.771 68.8427 789.688 69.384C788.605 69.9253 787.327 70.196 785.852 70.196ZM827.24 50.344V54.18H822.032V70H817.244V54.18H812.036V50.344H827.24ZM844.539 70.196C842.691 70.196 840.992 69.7667 839.443 68.908C837.912 68.0493 836.69 66.8547 835.775 65.324C834.879 63.7747 834.431 62.0387 834.431 60.116C834.431 58.1933 834.879 56.4667 835.775 54.936C836.69 53.4053 837.912 52.2107 839.443 51.352C840.992 50.4933 842.691 50.064 844.539 50.064C846.387 50.064 848.076 50.4933 849.607 51.352C851.156 52.2107 852.37 53.4053 853.247 54.936C854.143 56.4667 854.591 58.1933 854.591 60.116C854.591 62.0387 854.143 63.7747 853.247 65.324C852.351 66.8547 851.138 68.0493 849.607 68.908C848.076 69.7667 846.387 70.196 844.539 70.196ZM844.539 65.828C846.107 65.828 847.358 65.3053 848.291 64.26C849.243 63.2147 849.719 61.8333 849.719 60.116C849.719 58.38 849.243 56.9987 848.291 55.972C847.358 54.9267 846.107 54.404 844.539 54.404C842.952 54.404 841.683 54.9173 840.731 55.944C839.798 56.9707 839.331 58.3613 839.331 60.116C839.331 61.852 839.798 63.2427 840.731 64.288C841.683 65.3147 842.952 65.828 844.539 65.828Z" fill="#FDFDFD"/>
</svg>
