<svg width="584" height="696" viewBox="0 0 584 696" fill="none" xmlns="http://www.w3.org/2000/svg">
<path d="M19 279.5C19 314.906 32.3803 348.863 56.1974 373.899C80.0146 398.935 112.317 413 146 413C179.682 413 211.985 398.935 235.803 373.899C259.62 348.863 273 314.906 273 279.5L146 279.5H19Z" fill="#FFC5C9"/>
<path d="M438 254.5C473.406 254.5 507.363 241.12 532.399 217.303C557.435 193.485 571.5 161.183 571.5 127.5C571.5 93.8175 557.435 61.5146 532.399 37.6974C507.363 13.8803 473.406 0.5 438 0.5L438 127.5L438 254.5Z" fill="#3987F4"/>
<rect x="292" y="256" width="292" height="440" fill="#F2979D" fill-opacity="0.72"/>
<rect y="413" width="292" height="283" fill="#3987F4"/>
</svg>
